Coordinates
version=1
nRows=24
nColumns=38
inDegrees=no

Units are S.I. units (second, meters, Newtons, ...)
If the header above contains a line with 'inDegrees', this indicates whether rotational values are in degrees (yes) or radians (no).

endheader
time	pelvis_tilt	pelvis_list	pelvis_rotation	pelvis_tx	pelvis_ty	pelvis_tz	hip_flexion_r	hip_adduction_r	hip_rotation_r	knee_angle_r	ankle_angle_r	subtalar_angle_r	mtp_angle_r	hip_flexion_l	hip_adduction_l	hip_rotation_l	knee_angle_l	ankle_angle_l	subtalar_angle_l	mtp_angle_l	lumbar_extension	lumbar_bending	lumbar_rotation	arm_flex_r	arm_add_r	arm_rot_r	elbow_flex_r	pro_sup_r	wrist_flex_r	wrist_dev_r	arm_flex_l	arm_add_l	arm_rot_l	elbow_flex_l	pro_sup_l	wrist_flex_l	wrist_dev_l
2.43	2.25479	1.50084	-0.585811	0.754349	1.75139	0.912237	0.362599	-0.0401676	-0.427252	0.451281	0.0747682	0	0	-0.140293	-0.24049	-0.26825	0.768924	0.0815863	0	0	-0.11973	0.137757	-0.171303	-0.0815078	-0.302345	0.360127	0.620393	1.32588	0	0	-0.0346937	-0.358834	0.341443	0.784303	0.921766	0	0
2.44	2.08909	1.50061	-0.426575	0.757047	1.76241	0.912374	0.363431	-0.026907	-0.42233	0.452526	0.0767248	0	0	-0.101881	-0.25496	-0.255469	0.824506	0.0247276	0	0	-0.108429	0.146143	-0.165948	-0.0829583	-0.309266	0.37229	0.622499	1.3174	0	0	-0.0514451	-0.351704	0.333096	0.78942	0.933625	0	0
2.45	2.00245	1.49882	-0.344877	0.759956	1.77301	0.912656	0.356714	-0.0151064	-0.417876	0.45114	0.0832832	0	0	-0.066701	-0.267263	-0.240172	0.880359	-0.0312065	0	0	-0.102076	0.151038	-0.158112	-0.0866122	-0.315353	0.381672	0.628494	1.31	0	0	-0.0632832	-0.349797	0.337568	0.796894	0.939828	0	0
2.46	1.95578	1.49701	-0.302253	0.762751	1.78353	0.913282	0.344383	-0.00403039	-0.412831	0.445778	0.0920175	0	0	-0.0343276	-0.276802	-0.223424	0.932665	-0.0845152	0	0	-0.0985471	0.154466	-0.150973	-0.0900986	-0.320839	0.3898	0.635676	1.30202	0	0	-0.0745927	-0.348695	0.343091	0.804868	0.94189	0	0
2.47	1.91048	1.49564	-0.261304	0.765256	1.79401	0.914256	0.333905	0.00639633	-0.404553	0.441174	0.0969675	0	0	-0.00308336	-0.283897	-0.207931	0.980133	-0.129755	0	0	-0.0956752	0.157538	-0.145994	-0.0906167	-0.326498	0.400664	0.641134	1.29408	0	0	-0.0878984	-0.345134	0.341359	0.811637	0.944335	0	0
2.48	1.91966	1.49428	-0.274348	0.767694	1.80438	0.915706	0.319409	0.0153539	-0.395239	0.436881	0.101766	0	0	0.0226238	-0.288801	-0.195027	1.02241	-0.15818	0	0	-0.0972223	0.159008	-0.140397	-0.0907215	-0.330547	0.406182	0.645689	1.29225	0	0	-0.0988136	-0.341869	0.341141	0.816414	0.946173	0	0
2.49	1.98026	1.49343	-0.338338	0.77018	1.81467	0.917607	0.300619	0.0223597	-0.385584	0.432341	0.106834	0	0	0.0413941	-0.290428	-0.183635	1.05675	-0.16835	0	0	-0.102922	0.157937	-0.133999	-0.0907552	-0.33382	0.41103	0.650666	1.29182	0	0	-0.107464	-0.340684	0.345414	0.820547	0.947194	0	0
2.5	2.08438	1.4939	-0.445571	0.772607	1.82479	0.920038	0.278367	0.0258354	-0.375941	0.426539	0.11161	0	0	0.0540717	-0.284036	-0.167908	1.08186	-0.164738	0	0	-0.111448	0.153224	-0.12818	-0.0890235	-0.335219	0.415106	0.652849	1.29348	0	0	-0.11435	-0.341082	0.353536	0.822884	0.945915	0	0
2.51	2.18314	1.49401	-0.547718	0.774966	1.83472	0.922408	0.256404	0.0284312	-0.367525	0.419945	0.116444	0	0	0.0683466	-0.279467	-0.156912	1.10745	-0.151412	0	0	-0.119209	0.148108	-0.122158	-0.0867387	-0.336351	0.418611	0.654193	1.29614	0	0	-0.120026	-0.341203	0.362387	0.82326	0.9425	0	0
2.52	2.25599	1.49483	-0.623872	0.777276	1.84437	0.924505	0.238965	0.0301114	-0.360485	0.414674	0.119134	0	0	0.087525	-0.276077	-0.148681	1.13494	-0.131238	0	0	-0.12451	0.14291	-0.116157	-0.0844554	-0.336865	0.419488	0.655222	1.29996	0	0	-0.124596	-0.341228	0.372029	0.822343	0.937087	0	0
2.53	2.33227	1.49568	-0.703343	0.779484	1.85394	0.926607	0.218735	0.031042	-0.356263	0.405634	0.123291	0	0	0.106073	-0.27204	-0.142606	1.15802	-0.111437	0	0	-0.129182	0.137035	-0.110385	-0.0820562	-0.336921	0.418096	0.655606	1.30692	0	0	-0.12825	-0.341835	0.383999	0.820494	0.930458	0	0
2.54	2.39609	1.49626	-0.771463	0.781679	1.86347	0.928539	0.198851	0.0326327	-0.351978	0.395001	0.126705	0	0	0.124419	-0.269821	-0.140875	1.17608	-0.09673	0	0	-0.132692	0.131802	-0.103425	-0.0805421	-0.337596	0.414966	0.657772	1.31451	0	0	-0.131491	-0.341955	0.396234	0.817731	0.923365	0	0
2.55	2.47513	1.49791	-0.854876	0.783741	1.87275	0.930493	0.179675	0.0317491	-0.348136	0.384427	0.129465	0	0	0.140914	-0.264042	-0.13942	1.18615	-0.0862415	0	0	-0.136256	0.124846	-0.0968318	-0.0786289	-0.337801	0.411034	0.660197	1.31775	0	0	-0.134341	-0.340895	0.404673	0.813628	0.920751	0	0
2.56	2.60454	1.49758	-0.987841	0.785849	1.88141	0.932613	0.158243	0.0283216	-0.34536	0.374902	0.132509	0	0	0.153126	-0.25509	-0.137838	1.19003	-0.0776935	0	0	-0.146853	0.115895	-0.0959659	-0.0710079	-0.337318	0.410707	0.664469	1.32106	0	0	-0.140941	-0.340747	0.402914	0.815318	0.919775	0	0
2.57	2.6763	1.5001	-1.0633	0.787723	1.89047	0.934145	0.142212	0.0260294	-0.34479	0.365266	0.135614	0	0	0.171203	-0.24919	-0.13944	1.19227	-0.0712525	0	0	-0.147986	0.108738	-0.0906054	-0.0704475	-0.337706	0.4038	0.670486	1.32404	0	0	-0.144205	-0.338927	0.407437	0.811419	0.919648	0	0
2.58	2.74597	1.50245	-1.13612	0.789509	1.89966	0.935582	0.125829	0.0242048	-0.344962	0.35429	0.138206	0	0	0.188596	-0.243763	-0.142398	1.18999	-0.0667908	0	0	-0.147338	0.101879	-0.0856345	-0.0714076	-0.337615	0.393761	0.677281	1.32761	0	0	-0.147287	-0.337069	0.412872	0.806317	0.919751	0	0
2.59	2.81313	1.50438	-1.20749	0.791283	1.90868	0.936927	0.109745	0.0229919	-0.343906	0.342768	0.139909	0	0	0.204964	-0.2391	-0.147984	1.18356	-0.0623806	0	0	-0.146935	0.0955073	-0.0797067	-0.0725281	-0.337789	0.382728	0.685474	1.3303	0	0	-0.150191	-0.335023	0.417809	0.801576	0.920662	0	0
2.6	2.75398	1.50246	-1.17405	0.79444	1.91548	0.938524	0.0998189	0.0358095	-0.30823	0.332961	0.131244	0	0	0.216512	-0.250323	-0.175256	1.17536	-0.0547771	0	0	-0.155295	0.0993134	-0.0503941	-0.0698454	-0.345481	0.372372	0.702374	1.33214	0	0	-0.144626	-0.326634	0.423351	0.791647	0.926089	0	0
2.61	2.65931	1.48969	-1.08764	0.796406	1.92369	0.941627	0.0739575	0.0500939	-0.317045	0.31734	0.120286	0	0	0.221334	-0.267157	-0.186647	1.16095	-0.0442448	0	0	-0.168066	0.111945	-0.0379278	-0.0675168	-0.349936	0.362756	0.712312	1.33114	0	0	-0.141428	-0.316966	0.423684	0.777878	0.935691	0	0
2.62	3.01961	1.5047	-1.43543	0.796979	1.93493	0.940658	0.0595789	0.0212747	-0.328278	0.307478	0.140651	0	0	0.241446	-0.230372	-0.185942	1.14216	-0.0287869	0	0	-0.152487	0.077682	-0.0536483	-0.0754232	-0.342474	0.354793	0.719025	1.32987	0	0	-0.157405	-0.325035	0.42217	0.785785	0.938868	0	0
2.63	2.95795	1.5031	-1.40062	0.800066	1.94143	0.941999	0.0505475	0.0317121	-0.292384	0.300532	0.133333	0	0	0.248987	-0.242506	-0.219148	1.12382	-0.0145378	0	0	-0.161911	0.0809862	-0.0243693	-0.070923	-0.350846	0.348187	0.735865	1.32333	0	0	-0.15277	-0.314767	0.419056	0.776518	0.948017	0	0
2.64	3.01552	1.50188	-1.46508	0.801789	1.94999	0.942999	0.0334534	0.0306318	-0.287373	0.289572	0.133883	0	0	0.257015	-0.240588	-0.236184	1.09983	-0.00166334	0	0	-0.165289	0.0756993	-0.0169433	-0.0698089	-0.352875	0.3422	0.746279	1.31882	0	0	-0.155547	-0.310664	0.415765	0.771706	0.95146	0	0
2.65	3.06368	1.49984	-1.51996	0.803448	1.95852	0.943921	0.0158688	0.0298494	-0.282096	0.278886	0.134667	0	0	0.263159	-0.239052	-0.254347	1.07214	0.0091601	0	0	-0.169409	0.0709272	-0.00977206	-0.0682844	-0.355023	0.336878	0.756605	1.31295	0	0	-0.157966	-0.306456	0.411829	0.766936	0.954012	0	0
2.66	3.1028	1.49715	-1.56525	0.804994	1.96704	0.944744	-0.00215927	0.0291613	-0.277205	0.268636	0.135714	0	0	0.267766	-0.237341	-0.272898	1.04126	0.0179806	0	0	-0.174126	0.0666483	-0.00340612	-0.0660501	-0.357455	0.333925	0.766658	1.30371	0	0	-0.160174	-0.302338	0.407504	0.76252	0.955624	0	0
